<svg width="130" height="47" viewBox="0 0 130 47" fill="none" xmlns="http://www.w3.org/2000/svg">
<g id="Name">
<g id="Group">
<g id="Group_2">
<path id="h" d="M4.95672 6.10352e-05H0V35.7987H4.95672V22.5177C4.95672 20.271 5.51557 18.4985 6.63326 17.2503C7.75095 16.0021 9.2817 15.353 11.1769 15.353C12.8049 15.353 14.1655 15.9522 15.2589 17.1005C16.3523 18.2738 16.9112 19.7467 16.9112 21.5192V35.8236H21.8922V21.5192C21.8922 18.2239 20.9932 15.6276 19.1951 13.6804C17.3971 11.7332 15.0402 10.7596 12.1731 10.7596C11.347 10.7596 10.5209 10.8595 9.71906 11.0841C8.89294 11.3088 8.2369 11.5585 7.70235 11.8331C7.16781 12.1077 6.65756 12.4072 6.1959 12.7567C5.73424 13.1062 5.41838 13.3559 5.27259 13.5057C5.1268 13.6555 5.00532 13.7553 4.95672 13.8302V6.10352e-05Z" fill="#F0145A"/>
</g>
</g>
<g id="Group_3">
<g id="Group_4">
<path id="Vector" d="M32.9727 0H27.8628V35.7689H32.9727V0Z" fill="#323264"/>
</g>
<g id="Group_5">
<path id="Vector_2" d="M63.1115 25.2931L63.367 22.7382C63.367 19.3146 62.2428 16.4531 59.9434 14.1537C57.6439 11.8543 54.7824 10.7301 51.3588 10.7301C47.9352 10.7301 44.9715 11.9565 42.5188 14.4092C40.0661 16.8619 38.8397 19.7745 38.8397 23.2492C38.8397 26.8261 40.1172 29.892 42.621 32.4469C45.1248 35.0018 48.1396 36.2793 51.6143 36.2793C52.9429 36.2793 54.1692 36.0749 55.3956 35.7172C56.622 35.3084 57.6439 34.8996 58.3593 34.4909C59.1258 34.031 59.8923 33.52 60.5565 32.9579C61.2208 32.3958 61.6807 31.987 61.8851 31.7315C62.0895 31.4761 62.2428 31.3228 62.345 31.1695L59.0236 27.8481L58.2571 28.8189C57.7461 29.4321 56.8775 30.0453 55.6511 30.7096C54.3736 31.3739 53.0451 31.6804 51.6143 31.6804C49.6215 31.6804 47.9352 31.0673 46.5045 29.7898C45.0737 28.5123 44.2051 27.0305 43.9496 25.2931H63.1115ZM51.3588 15.0735C53.2495 15.0735 54.7824 15.6355 56.0599 16.7086C57.2862 17.8328 58.0527 19.2124 58.3593 20.9498H44.154C44.6138 19.2124 45.4314 17.8328 46.7089 16.7086C47.9352 15.6355 49.5193 15.0735 51.3588 15.0735Z" fill="#323264"/>
</g>
<g id="Group_6">
<path id="Vector_3" d="M86.9429 34.2865C86.9429 36.5348 86.2786 38.3743 84.899 39.8051C83.5704 41.1847 81.8842 41.9001 79.7891 41.9001C78.8694 41.9001 77.9496 41.7468 77.0809 41.4913C76.2122 41.2358 75.548 40.9292 74.9859 40.5715C74.4238 40.2139 73.9128 39.8562 73.4018 39.3963C72.9419 38.9364 72.6354 38.6298 72.4821 38.4765C72.3288 38.3232 72.2266 38.1699 72.1244 38.0677L68.803 41.3891L69.2118 41.9001C69.4673 42.2578 69.9271 42.7177 70.5403 43.2287C71.1535 43.6885 71.8689 44.1995 72.6865 44.7105C73.504 45.1704 74.526 45.5792 75.8035 45.9369C77.0809 46.2946 78.4095 46.499 79.7891 46.499C83.2638 46.499 86.1253 45.3237 88.5269 42.9732C90.8775 40.5716 92.0527 37.71 92.0527 34.2354V11.2411H86.9429V13.796L86.0742 13.0295C85.5121 12.5185 84.6435 12.0076 83.4171 11.4966C82.1907 10.9856 80.8622 10.7301 79.5336 10.7301C76.4166 10.7301 73.7595 11.9054 71.4601 14.307C69.1607 16.7086 68.0365 19.5701 68.0365 22.9937C68.0365 26.4173 69.1607 29.2788 71.4601 31.6804C73.7595 34.0821 76.4166 35.2573 79.5336 35.2573C80.4023 35.2573 81.2199 35.1551 82.0885 34.9507C82.9061 34.6952 83.5704 34.4397 84.1325 34.1843C84.6946 33.9288 85.2055 33.6222 85.6654 33.2645C86.1253 32.9068 86.483 32.6513 86.5852 32.5491L86.9429 32.1914V34.2865ZM73.1463 22.9937C73.1463 20.8476 73.8106 19.0591 75.1903 17.5773C76.5699 16.0954 78.2051 15.329 80.0446 15.329C81.8842 15.329 83.5193 16.0954 84.899 17.5773C86.2275 19.0591 86.9429 20.8476 86.9429 22.9937C86.9429 25.1398 86.2275 26.9283 84.899 28.4101C83.5193 29.892 81.8842 30.6585 80.0446 30.6585C78.2051 30.6585 76.5699 29.892 75.1903 28.4101C73.8106 26.9283 73.1463 25.1398 73.1463 22.9937Z" fill="#323264"/>
</g>
<g id="Group_7">
<path id="Vector_4" d="M118.724 35.7683V19.9278C118.724 17.3218 117.753 15.1246 115.863 13.3872C113.972 11.5988 111.519 10.7301 108.504 10.7301C107.329 10.7301 106.154 10.8834 105.03 11.19C103.906 11.5477 102.986 11.9054 102.322 12.3142C101.657 12.7229 100.993 13.1828 100.38 13.7449C99.7666 14.2559 99.409 14.6136 99.2046 14.818C99.0513 15.0224 98.898 15.1757 98.7958 15.329L102.117 18.6504L102.781 17.7817C103.19 17.2196 103.906 16.7086 104.979 16.1465C106.052 15.5845 107.227 15.329 108.504 15.329C109.986 15.329 111.213 15.7888 112.184 16.6575C113.154 17.5262 113.614 18.6504 113.614 19.9278L104.672 21.4608C102.475 21.8185 100.686 22.6871 99.46 24.0668C98.1826 25.4464 97.5183 27.1327 97.5183 29.1255C97.5183 31.0162 98.3359 32.6513 99.971 34.0821C101.657 35.5639 103.701 36.2793 106.205 36.2793C107.074 36.2793 107.891 36.1771 108.709 35.9216C109.578 35.7172 110.242 35.4617 110.804 35.2062C111.366 34.9507 111.877 34.6442 112.337 34.2865C112.797 33.9288 113.103 33.6733 113.308 33.5711C113.461 33.4178 113.563 33.2645 113.614 33.2134V35.7683H118.724ZM106.972 31.6804C105.643 31.6804 104.57 31.3739 103.803 30.7607C102.986 30.1475 102.628 29.4321 102.628 28.6145C102.628 27.7459 102.884 26.9794 103.446 26.4173C104.008 25.8552 104.774 25.4464 105.694 25.2931L113.614 24.0157V24.5267C113.614 26.8261 113.052 28.5634 111.877 29.8409C110.702 31.0673 109.067 31.6804 106.972 31.6804Z" fill="#323264"/>
</g>
<g id="Group_8">
<path id="Vector_5" d="M130 0H124.89V35.7689H130V0Z" fill="#323264"/>
</g>
</g>
</g>
</svg>
